<?xml version="1.0" encoding="utf-8"?>
<!-- Generator: Adobe Illustrator 23.0.5, SVG Export Plug-In . SVG Version: 6.00 Build 0)  -->
<svg version="1.1" id="Layer_1" xmlns="http://www.w3.org/2000/svg" xmlns:xlink="http://www.w3.org/1999/xlink" x="0px" y="0px"
	 viewBox="0 0 109.89 45.31" style="enable-background:new 0 0 109.89 45.31;" xml:space="preserve">
<style type="text/css">
	.Arched_x0020_Green{fill:url(#SVGID_1_);stroke:#FFFFFF;stroke-width:0.25;stroke-miterlimit:1;}
	.st0{fill:#1B75BC;}
	.st1{fill:#ED1C24;}
	.st2{fill:#FFFFFF;}
	.st3{fill:#EFEFF0;}
</style>
<linearGradient id="SVGID_1_" gradientUnits="userSpaceOnUse" x1="-947.1277" y1="5597.6182" x2="-946.4207" y2="5596.9111">
	<stop  offset="0" style="stop-color:#20AC4B"/>
	<stop  offset="0.9831" style="stop-color:#19361A"/>
</linearGradient>
<g>
	<g>
		<g>
			<path d="M39.94,20.88v2.94c0,0.17-0.06,0.31-0.17,0.42c-0.11,0.12-0.25,0.18-0.41,0.18c-0.16,0-0.3-0.06-0.41-0.18
				c-0.12-0.12-0.17-0.26-0.17-0.42v-7.25c0-0.17,0.06-0.31,0.17-0.42c0.11-0.12,0.25-0.18,0.41-0.18l2.35-0.01
				c0.66,0,1.22,0.24,1.69,0.72c0.47,0.48,0.7,1.06,0.7,1.74c0,0.68-0.23,1.26-0.7,1.74c-0.47,0.48-1.03,0.72-1.69,0.72H39.94z
				 M41.7,17.14h-1.76v2.55h1.76c0.34,0,0.64-0.12,0.88-0.37c0.24-0.25,0.36-0.55,0.36-0.91c0-0.35-0.12-0.65-0.36-0.9
				C42.34,17.26,42.04,17.14,41.7,17.14z"/>
			<path d="M46.32,16.14c0.12,0.12,0.17,0.26,0.17,0.42v7.25c0,0.17-0.06,0.31-0.17,0.42c-0.11,0.12-0.25,0.18-0.41,0.18
				c-0.16,0-0.3-0.06-0.41-0.18c-0.12-0.12-0.17-0.26-0.17-0.42v-7.25c0-0.17,0.06-0.31,0.17-0.42c0.11-0.12,0.25-0.18,0.41-0.18
				C46.07,15.96,46.2,16.02,46.32,16.14z"/>
			<path d="M48.78,18.25v5.57c0,0.17-0.06,0.31-0.17,0.42c-0.11,0.12-0.25,0.18-0.41,0.18c-0.16,0-0.3-0.06-0.41-0.18
				c-0.12-0.12-0.17-0.26-0.17-0.42v-7.25c0-0.17,0.06-0.31,0.17-0.42c0.11-0.12,0.25-0.18,0.41-0.18c0.16,0,0.3,0.06,0.41,0.18
				c0.05,0.05,0.08,0.1,0.11,0.15l4.62,5.87v-5.6c0-0.17,0.06-0.31,0.17-0.42c0.11-0.12,0.25-0.18,0.41-0.18s0.3,0.06,0.41,0.18
				s0.17,0.26,0.17,0.42v7.25c0,0.17-0.06,0.31-0.17,0.42s-0.25,0.18-0.41,0.18s-0.3-0.06-0.41-0.18c-0.02-0.02-0.03-0.03-0.05-0.04
				L48.78,18.25z"/>
			<path d="M62.62,17.2c0.8,0.83,1.2,1.82,1.2,2.99s-0.4,2.16-1.2,2.99s-1.77,1.24-2.9,1.24s-2.1-0.41-2.9-1.24
				c-0.8-0.83-1.2-1.82-1.2-2.99s0.4-2.16,1.2-2.99c0.8-0.83,1.77-1.24,2.9-1.24S61.82,16.37,62.62,17.2z M59.72,17.16
				c-0.81,0-1.5,0.3-2.08,0.89c-0.57,0.59-0.86,1.3-0.86,2.14c0,0.83,0.29,1.55,0.86,2.14c0.57,0.59,1.26,0.89,2.08,0.89
				c0.81,0,1.5-0.3,2.07-0.89c0.57-0.59,0.86-1.3,0.86-2.14c0-0.83-0.29-1.55-0.86-2.14C61.22,17.46,60.53,17.16,59.72,17.16z"/>
			<path d="M63.86,16.86c-0.06-0.09-0.09-0.19-0.09-0.31c0-0.16,0.05-0.3,0.17-0.42c0.11-0.12,0.25-0.17,0.41-0.17
				c0.16,0,0.29,0.06,0.41,0.17c0.05,0.05,0.09,0.11,0.11,0.17l2.91,6.17l2.91-6.17h0.01c0.03-0.06,0.07-0.12,0.11-0.17
				c0.11-0.11,0.25-0.17,0.41-0.17c0.16,0,0.29,0.06,0.4,0.17c0.11,0.12,0.17,0.25,0.17,0.42c0,0.13-0.03,0.24-0.1,0.33l-3.39,7.21
				c-0.03,0.05-0.06,0.11-0.11,0.15c-0.11,0.12-0.25,0.18-0.41,0.18c-0.16,0-0.3-0.06-0.41-0.18c-0.05-0.05-0.09-0.11-0.12-0.18
				L63.86,16.86z"/>
			<path d="M71.85,22.06l-0.95,2.02c-0.03,0.06-0.07,0.12-0.11,0.17c-0.11,0.11-0.25,0.17-0.41,0.17c-0.16,0-0.3-0.06-0.41-0.17
				c-0.11-0.12-0.17-0.25-0.17-0.42c0-0.11,0.03-0.22,0.09-0.31l3.39-7.21c0.03-0.06,0.07-0.12,0.12-0.18
				c0.11-0.12,0.25-0.18,0.41-0.18c0.16,0,0.29,0.06,0.41,0.18c0.05,0.05,0.08,0.1,0.11,0.15l3.39,7.21c0.06,0.09,0.1,0.2,0.1,0.33
				c0,0.16-0.06,0.3-0.17,0.42c-0.11,0.12-0.25,0.17-0.4,0.17c-0.16,0-0.29-0.06-0.41-0.17c-0.05-0.06-0.09-0.11-0.11-0.17h-0.01
				l-0.95-2.02H71.85z M75.22,20.88l-1.4-2.98l-1.41,2.98H75.22z"/>
			<path d="M80.18,17.14v6.67c0,0.17-0.06,0.31-0.17,0.42s-0.25,0.18-0.41,0.18s-0.3-0.06-0.41-0.18s-0.17-0.26-0.17-0.42v-6.67
				H77.3c-0.16,0-0.3-0.06-0.41-0.18c-0.12-0.12-0.17-0.26-0.17-0.42c0-0.17,0.06-0.31,0.17-0.42c0.11-0.12,0.25-0.18,0.41-0.18
				h4.55c0.16,0,0.3,0.06,0.41,0.18c0.11,0.12,0.17,0.26,0.17,0.42c0,0.17-0.06,0.31-0.17,0.42s-0.25,0.18-0.41,0.18H80.18z"/>
			<path d="M84.59,16.14c0.12,0.12,0.17,0.26,0.17,0.42v7.25c0,0.17-0.06,0.31-0.17,0.42c-0.11,0.12-0.25,0.18-0.41,0.18
				c-0.16,0-0.3-0.06-0.41-0.18c-0.12-0.12-0.17-0.26-0.17-0.42v-7.25c0-0.17,0.06-0.31,0.17-0.42c0.11-0.12,0.25-0.18,0.41-0.18
				C84.34,15.96,84.48,16.02,84.59,16.14z"/>
			<path d="M92.9,17.2c0.8,0.83,1.2,1.82,1.2,2.99s-0.4,2.16-1.2,2.99s-1.77,1.24-2.9,1.24s-2.1-0.41-2.9-1.24
				c-0.8-0.83-1.2-1.82-1.2-2.99s0.4-2.16,1.2-2.99c0.8-0.83,1.77-1.24,2.9-1.24S92.1,16.37,92.9,17.2z M90,17.16
				c-0.81,0-1.5,0.3-2.08,0.89c-0.57,0.59-0.86,1.3-0.86,2.14c0,0.83,0.29,1.55,0.86,2.14c0.57,0.59,1.26,0.89,2.08,0.89
				c0.81,0,1.5-0.3,2.07-0.89c0.57-0.59,0.86-1.3,0.86-2.14c0-0.83-0.29-1.55-0.86-2.14C91.5,17.46,90.8,17.16,90,17.16z"/>
			<path d="M96.5,18.25v5.57c0,0.17-0.06,0.31-0.17,0.42c-0.11,0.12-0.25,0.18-0.41,0.18c-0.16,0-0.3-0.06-0.41-0.18
				c-0.12-0.12-0.17-0.26-0.17-0.42v-7.25c0-0.17,0.06-0.31,0.17-0.42c0.11-0.12,0.25-0.18,0.41-0.18c0.16,0,0.3,0.06,0.41,0.18
				c0.05,0.05,0.08,0.1,0.11,0.15l4.62,5.87v-5.6c0-0.17,0.06-0.31,0.17-0.42c0.11-0.12,0.25-0.18,0.41-0.18s0.3,0.06,0.41,0.18
				s0.17,0.26,0.17,0.42v7.25c0,0.17-0.06,0.31-0.17,0.42s-0.25,0.18-0.41,0.18s-0.3-0.06-0.41-0.18c-0.02-0.02-0.03-0.03-0.05-0.04
				L96.5,18.25z"/>
		</g>
		<g>
			<path d="M78.54,26.94h-1.04v-0.19h2.3v0.19h-1.04v3.03h-0.22V26.94z"/>
			<path d="M80.8,28.8c0,0.73,0.39,1.02,0.86,1.02c0.33,0,0.5-0.07,0.63-0.13l0.06,0.18c-0.09,0.05-0.32,0.15-0.71,0.15
				c-0.65,0-1.05-0.48-1.05-1.15c0-0.77,0.43-1.24,1.02-1.24c0.74,0,0.88,0.71,0.88,1.04c0,0.06,0,0.1-0.01,0.14H80.8z M82.25,28.62
				c0.01-0.32-0.13-0.81-0.68-0.81c-0.5,0-0.71,0.45-0.75,0.81H82.25z"/>
			<path d="M85.56,29.87c-0.1,0.05-0.33,0.15-0.66,0.15c-0.65,0-1.09-0.48-1.09-1.17c0-0.73,0.49-1.23,1.17-1.23
				c0.28,0,0.51,0.08,0.59,0.14l-0.08,0.19c-0.11-0.06-0.28-0.13-0.54-0.13c-0.61,0-0.92,0.47-0.92,1.01c0,0.6,0.37,0.99,0.89,0.99
				c0.27,0,0.44-0.08,0.57-0.13L85.56,29.87z"/>
			<path d="M87.05,26.58h0.22v1.51h0.01c0.06-0.13,0.17-0.25,0.31-0.33c0.13-0.08,0.28-0.13,0.46-0.13c0.21,0,0.79,0.11,0.79,0.96
				v1.38h-0.22v-1.36c0-0.41-0.16-0.79-0.62-0.79c-0.32,0-0.58,0.23-0.68,0.52c-0.02,0.07-0.03,0.13-0.03,0.23v1.4h-0.22V26.58z"/>
			<path d="M92.5,26.75h0.22v3.03h1.42v0.19H92.5V26.75z"/>
			<path d="M95.86,27.01v0.66h0.64v0.18h-0.64v1.49c0,0.29,0.09,0.47,0.33,0.47c0.12,0,0.2-0.02,0.26-0.04l0.03,0.18
				c-0.07,0.03-0.18,0.05-0.31,0.05c-0.17,0-0.3-0.05-0.39-0.16c-0.1-0.12-0.14-0.31-0.14-0.55v-1.45h-0.38v-0.18h0.38v-0.59
				L95.86,27.01z"/>
			<path d="M99.72,26.58v2.86c0,0.17,0.01,0.37,0.02,0.53h-0.2l-0.01-0.43h-0.01c-0.12,0.26-0.39,0.49-0.81,0.49
				c-0.56,0-0.97-0.47-0.97-1.16c0-0.76,0.46-1.24,1.02-1.24c0.39,0,0.64,0.21,0.74,0.4h0.01v-1.45H99.72z M99.5,28.58
				c0-0.06-0.01-0.15-0.02-0.21c-0.08-0.31-0.34-0.56-0.71-0.56c-0.49,0-0.8,0.43-0.8,1.03c0,0.52,0.25,0.99,0.79,0.99
				c0.32,0,0.63-0.22,0.72-0.6c0.02-0.06,0.02-0.12,0.02-0.19V28.58z"/>
			<path d="M101.25,29.81c0-0.13,0.08-0.22,0.19-0.22c0.12,0,0.19,0.09,0.19,0.22c0,0.11-0.07,0.21-0.19,0.21
				C101.33,30.02,101.25,29.92,101.25,29.81z"/>
		</g>
	</g>
	<g>
		<path class="st0" d="M31.1,10.75c-2.54-2.52-6.06-4.08-9.93-4.07v3.33c2.97,0,5.64,1.19,7.58,3.11c1.94,1.92,3.13,4.56,3.13,7.49
			c0,2.93-1.19,5.56-3.13,7.49c-1.94,1.92-4.61,3.11-7.58,3.11c-2.97,0-5.64-1.19-7.58-3.11c-1.94-1.92-2.91-4.56-2.92-7.49h-0.02
			v-9.36h-0.01c-2.34,2.62-3.51,5.94-3.51,9.24v0.12h0c0,0.11,0,0.22,0,0.33v17.7c1.95,0,3.53-1.58,3.53-3.53v-5.27
			c0.19,0.21,0.39,0.42,0.59,0.62c2.54,2.52,6.06,4.08,9.93,4.07c3.87,0,7.39-1.56,9.93-4.07c2.54-2.51,4.12-6.01,4.12-9.86
			C35.22,16.76,33.64,13.26,31.1,10.75z"/>
		<path class="st1" d="M17.71,10.6c-1.36,0.48-2.6,1.23-3.65,2.18V8.5c0.98-0.57,2-1.01,3.06-1.32l0.59-0.17V10.6z"/>
		<path class="st0" d="M26.02,25.69c-0.31,0.3-3.34,3.08-8.17,1.27h0c-3.72-2.05-3.79-6.1-3.78-6.54c0-0.02,0.02-0.04,0.04-0.04
			h-0.04v-6.43c1-1.08,2.25-1.94,3.65-2.47v5.37h6.92v3.75h-6.92c0.01,0.63,0.2,2.5,1.93,3.16c1.7,0.65,3.15-0.09,3.58-0.65
			c0.1-0.14,0.3-0.15,0.42-0.03l2.37,2.55C26.03,25.65,26.03,25.68,26.02,25.69z"/>
	</g>
</g>
<rect x="-27.66" y="300.55" class="st2" width="237.6" height="151.2"/>
<rect x="-27.66" y="300.55" class="st3" width="237.6" height="151.2"/>
<g>
</g>
<g>
</g>
<g>
</g>
<g>
</g>
<g>
</g>
<g>
</g>
</svg>
